<svg width="14" height="14" viewBox="0 0 14 14" fill="none" xmlns="http://www.w3.org/2000/svg">
<path fill-rule="evenodd" clip-rule="evenodd" d="M7.00004 2.33329C6.08159 2.33329 5.19439 2.71683 4.53547 3.40998C3.8756 4.10413 3.50004 5.05163 3.50004 6.04541C3.50004 7.4923 4.39623 8.90464 5.39184 10.0102C5.87939 10.5515 6.36871 10.995 6.7366 11.3031C6.83403 11.3847 6.92262 11.4566 7.00004 11.518C7.07746 11.4566 7.16606 11.3847 7.26348 11.3031C7.63137 10.995 8.12069 10.5515 8.60825 10.0102C9.60385 8.90464 10.5 7.4923 10.5 6.04541C10.5 5.05163 10.1245 4.10413 9.46461 3.40998C8.80569 2.71683 7.91849 2.33329 7.00004 2.33329ZM7.00004 12.25C6.66511 12.7276 6.66496 12.7275 6.6648 12.7273L6.66333 12.7263L6.66008 12.724L6.64921 12.7163C6.64005 12.7097 6.62713 12.7004 6.61068 12.6885C6.5778 12.6645 6.53079 12.6298 6.4717 12.5849C6.35356 12.4951 6.18674 12.3644 5.98744 12.1975C5.5897 11.8643 5.05819 11.383 4.52491 10.7909C3.47885 9.62937 2.33337 7.93943 2.33337 6.04541C2.33337 4.76074 2.81823 3.52311 3.6899 2.60616C4.56253 1.6882 5.75256 1.16663 7.00004 1.16663C8.24752 1.16663 9.43755 1.6882 10.3102 2.60616C11.1819 3.52311 11.6667 4.76074 11.6667 6.04541C11.6667 7.93943 10.5212 9.62937 9.47517 10.7909C8.94189 11.383 8.41038 11.8643 8.01264 12.1975C7.81335 12.3644 7.64653 12.4951 7.52839 12.5849C7.46929 12.6298 7.42229 12.6645 7.3894 12.6885C7.37295 12.7004 7.36003 12.7097 7.35088 12.7163L7.34001 12.724L7.33675 12.7263L7.33568 12.7271C7.33552 12.7272 7.33498 12.7276 7.00004 12.25ZM7.00004 12.25L7.33498 12.7276C7.13394 12.8685 6.86584 12.8683 6.6648 12.7273L7.00004 12.25Z" fill="white"/>
<path fill-rule="evenodd" clip-rule="evenodd" d="M7.00008 4.66667C6.35575 4.66667 5.83341 5.189 5.83341 5.83333C5.83341 6.47767 6.35575 7 7.00008 7C7.64441 7 8.16675 6.47767 8.16675 5.83333C8.16675 5.189 7.64441 4.66667 7.00008 4.66667ZM4.66675 5.83333C4.66675 4.54467 5.71142 3.5 7.00008 3.5C8.28875 3.5 9.33342 4.54467 9.33342 5.83333C9.33342 7.122 8.28875 8.16667 7.00008 8.16667C5.71142 8.16667 4.66675 7.122 4.66675 5.83333Z" fill="white"/>
</svg>
